<?xml version="1.0" standalone="no"?>
<!DOCTYPE svg PUBLIC "-//W3C//DTD SVG 20010904//EN"
 "http://www.w3.org/TR/2001/REC-SVG-20010904/DTD/svg10.dtd">
<svg version="1.0" xmlns="http://www.w3.org/2000/svg"
 width="478.000000pt" height="478.000000pt" viewBox="0 0 478.000000 478.000000"
 preserveAspectRatio="xMidYMid meet">
<metadata>
Created by potrace 1.14, written by Peter Selinger 2001-2017
</metadata>
<g transform="translate(0.000000,478.000000) scale(0.100000,-0.100000)"
fill="#000000" stroke="none">
<path d="M2209 4776 c-2 -2 -37 -7 -77 -10 -40 -4 -78 -9 -85 -11 -7 -2 -30
-6 -52 -9 -82 -11 -212 -42 -325 -78 -487 -155 -905 -455 -1204 -863 -36 -49
-70 -95 -76 -102 -5 -7 -10 -15 -10 -17 0 -3 -16 -30 -35 -60 -139 -218 -282
-604 -311 -841 -2 -22 -7 -46 -9 -53 -26 -75 -26 -565 0 -686 2 -11 7 -37 10
-56 20 -139 73 -328 137 -490 34 -85 131 -282 159 -321 10 -15 19 -30 19 -33
0 -3 25 -43 56 -88 138 -204 304 -384 489 -531 33 -27 68 -55 78 -63 9 -8 21
-14 26 -14 5 0 11 -4 13 -8 13 -32 360 -224 473 -263 22 -7 45 -16 50 -20 17
-11 195 -67 280 -88 91 -22 239 -49 329 -59 82 -9 404 -9 491 0 253 27 521
100 743 204 41 19 75 34 77 34 1 0 40 21 86 46 232 127 435 290 643 514 64 69
192 245 258 355 112 186 240 502 272 670 2 11 8 38 14 60 6 22 13 62 17 89 3
27 8 52 10 56 26 41 26 565 0 690 -2 13 -7 42 -11 65 -34 238 -148 551 -291
800 -46 80 -172 264 -202 294 -9 9 -33 38 -55 65 -137 169 -416 398 -626 514
-93 52 -241 122 -256 122 -8 0 -14 4 -14 9 0 5 -10 11 -22 14 -13 3 -69 21
-126 41 -56 20 -113 38 -125 41 -12 2 -61 13 -108 24 -47 11 -119 25 -160 31
-41 6 -85 14 -99 17 -28 5 -446 14 -451 9z"/>
</g>
</svg>
